<svg xmlns="http://www.w3.org/2000/svg" xmlns:xlink="http://www.w3.org/1999/xlink" width="500" zoomAndPan="magnify" viewBox="0 0 375 374.999991" height="500" preserveAspectRatio="xMidYMid meet" version="1.0"><defs><clipPath id="120b147a34"><path d="M 253 321 L 310 321 L 310 331.6875 L 253 331.6875 Z M 253 321 " clip-rule="nonzero"/></clipPath><clipPath id="4e096d2094"><path d="M 233 321 L 244 321 L 244 331.6875 L 233 331.6875 Z M 233 321 " clip-rule="nonzero"/></clipPath><clipPath id="db01c9d4eb"><path d="M 65 321 L 224 321 L 224 331.6875 L 65 331.6875 Z M 65 321 " clip-rule="nonzero"/></clipPath><clipPath id="8bd1bfad46"><path d="M 37.5 43.6875 L 337.5 43.6875 L 337.5 222 L 37.5 222 Z M 37.5 43.6875 " clip-rule="nonzero"/></clipPath></defs><g clip-path="url(#120b147a34)"><path fill="#ffffff" d="M 253.789062 321.121094 L 309.878906 321.121094 L 309.878906 331.316406 L 253.789062 331.316406 Z M 253.789062 321.121094 " fill-opacity="1" fill-rule="nonzero"/></g><g clip-path="url(#4e096d2094)"><path fill="#ffffff" d="M 233.394531 321.121094 L 243.59375 321.121094 L 243.59375 331.316406 L 233.394531 331.316406 Z M 233.394531 321.121094 " fill-opacity="1" fill-rule="nonzero"/></g><g clip-path="url(#db01c9d4eb)"><path fill="#ffffff" d="M 65.132812 321.121094 L 223.199219 321.121094 L 223.199219 331.316406 L 65.132812 331.316406 Z M 65.132812 321.121094 " fill-opacity="1" fill-rule="nonzero"/></g><path fill="#ffffff" d="M 218.097656 305.820312 L 156.914062 305.820312 L 156.914062 300.71875 C 156.914062 280.765625 153.242188 272.832031 149.355469 264.433594 C 145.554688 256.214844 141.621094 247.714844 141.621094 229.339844 C 141.621094 204.035156 162.207031 183.449219 187.511719 183.449219 C 212.816406 183.449219 233.402344 204.035156 233.402344 229.339844 C 233.402344 247.714844 229.464844 256.214844 225.664062 264.433594 C 221.777344 272.832031 218.109375 280.769531 218.109375 300.71875 L 218.109375 305.820312 Z M 167.027344 295.625 L 207.984375 295.625 C 208.621094 276.96875 212.734375 268.070312 216.40625 260.152344 C 220.046875 252.273438 223.199219 245.46875 223.199219 229.339844 C 223.199219 209.660156 207.183594 193.644531 187.503906 193.644531 C 167.828125 193.644531 151.8125 209.660156 151.8125 229.339844 C 151.8125 245.464844 154.957031 252.269531 158.605469 260.152344 C 162.273438 268.078125 166.390625 276.96875 167.027344 295.625 Z M 167.027344 295.625 " fill-opacity="1" fill-rule="nonzero"/><path fill="#ffffff" d="M 159.050781 270.128906 L 182.410156 270.128906 L 182.410156 280.324219 L 159.050781 280.324219 Z M 159.050781 270.128906 " fill-opacity="1" fill-rule="nonzero"/><path fill="#ffffff" d="M 192.605469 270.128906 L 202.804688 270.128906 L 202.804688 280.324219 L 192.605469 280.324219 Z M 192.605469 270.128906 " fill-opacity="1" fill-rule="nonzero"/><path fill="#ffffff" d="M 114.746094 194.382812 L 121.957031 187.171875 L 137.675781 202.890625 L 130.464844 210.101562 Z M 114.746094 194.382812 " fill-opacity="1" fill-rule="nonzero"/><path fill="#ffffff" d="M 155.316406 161.039062 L 164.503906 156.609375 L 173.707031 175.695312 L 164.523438 180.125 Z M 155.316406 161.039062 " fill-opacity="1" fill-rule="nonzero"/><path fill="#ffffff" d="M 105.925781 244.636719 L 126.320312 244.636719 L 126.320312 254.835938 L 105.925781 254.835938 Z M 105.925781 244.636719 " fill-opacity="1" fill-rule="nonzero"/><path fill="#ffffff" d="M 237.117188 203.101562 L 253.316406 186.90625 L 260.527344 194.113281 L 244.328125 210.3125 Z M 237.117188 203.101562 " fill-opacity="1" fill-rule="nonzero"/><path fill="#ffffff" d="M 201.292969 175.667969 L 210.503906 156.585938 L 219.6875 161.015625 L 210.480469 180.101562 Z M 201.292969 175.667969 " fill-opacity="1" fill-rule="nonzero"/><path fill="#ffffff" d="M 248.695312 244.636719 L 269.089844 244.636719 L 269.089844 254.835938 L 248.695312 254.835938 Z M 248.695312 244.636719 " fill-opacity="1" fill-rule="nonzero"/><g clip-path="url(#8bd1bfad46)"><path fill="#ffffff" d="M 309.878906 221.253906 L 187.503906 98.878906 L 137.132812 149.25 L 129.925781 142.039062 L 187.503906 84.460938 L 309.878906 206.835938 L 323.066406 193.644531 L 187.503906 58.089844 L 51.949219 193.644531 L 65.132812 206.835938 L 104.910156 167.058594 L 112.121094 174.269531 L 65.132812 221.253906 L 37.527344 193.644531 L 187.503906 43.667969 L 337.484375 193.644531 Z M 309.878906 221.253906 " fill-opacity="1" fill-rule="nonzero"/></g><path fill="#ffffff" d="M 114.742188 157.21875 L 120.71875 151.242188 L 127.929688 158.453125 L 121.953125 164.429688 Z M 114.742188 157.21875 " fill-opacity="1" fill-rule="nonzero"/><path fill="#ffffff" d="M 116.125 127.359375 L 105.925781 127.359375 L 105.925781 66.175781 L 146.714844 66.175781 L 146.714844 96.769531 L 136.519531 96.769531 L 136.519531 76.375 L 116.125 76.375 Z M 116.125 127.359375 " fill-opacity="1" fill-rule="nonzero"/><path fill="#ffffff" d="M 75.328125 198.746094 L 85.527344 198.746094 L 85.527344 326.214844 L 75.328125 326.214844 Z M 75.328125 198.746094 " fill-opacity="1" fill-rule="nonzero"/><path fill="#ffffff" d="M 289.484375 198.746094 L 299.679688 198.746094 L 299.679688 326.214844 L 289.484375 326.214844 Z M 289.484375 198.746094 " fill-opacity="1" fill-rule="nonzero"/></svg>