<svg xmlns="http://www.w3.org/2000/svg" xmlns:xlink="http://www.w3.org/1999/xlink" width="500" zoomAndPan="magnify" viewBox="0 0 375 374.999991" height="500" preserveAspectRatio="xMidYMid meet" version="1.0"><defs><clipPath id="63d8c97799"><path d="M 68 324 L 297 324 L 297 337.5 L 68 337.5 Z M 68 324 " clip-rule="nonzero"/></clipPath><clipPath id="8a06b3b669"><path d="M 61.3125 37.5 L 314 37.5 L 314 75 L 61.3125 75 Z M 61.3125 37.5 " clip-rule="nonzero"/></clipPath></defs><path fill="#ffffff" d="M 282.808594 74.183594 L 82.480469 74.183594 C 82.167969 74.183594 81.855469 74.105469 81.582031 73.910156 L 69.914062 66.507812 C 67.996094 65.296875 68.664062 61.578125 70.816406 61.578125 L 294.4375 61.578125 C 296.589844 61.578125 297.253906 65.296875 295.335938 66.507812 L 283.667969 73.910156 C 283.433594 74.066406 283.121094 74.183594 282.808594 74.183594 Z M 282.808594 74.183594 " fill-opacity="1" fill-rule="nonzero"/><path fill="#ffffff" d="M 282.808594 91.722656 L 82.480469 91.722656 C 82.167969 91.722656 81.855469 91.644531 81.582031 91.449219 L 69.914062 84.046875 C 67.996094 82.835938 68.664062 79.117188 70.816406 79.117188 L 294.4375 79.117188 C 296.589844 79.117188 297.253906 82.835938 295.335938 84.046875 L 283.667969 91.449219 C 283.433594 91.644531 283.121094 91.722656 282.808594 91.722656 Z M 282.808594 91.722656 " fill-opacity="1" fill-rule="nonzero"/><path fill="#ffffff" d="M 282.808594 109.261719 L 82.480469 109.261719 C 82.167969 109.261719 81.855469 109.183594 81.582031 108.988281 L 69.914062 101.585938 C 67.996094 100.375 68.664062 96.65625 70.816406 96.65625 L 294.4375 96.65625 C 296.589844 96.65625 297.253906 100.375 295.335938 101.585938 L 283.667969 108.988281 C 283.433594 109.183594 283.121094 109.261719 282.808594 109.261719 Z M 282.808594 109.261719 " fill-opacity="1" fill-rule="nonzero"/><path fill="#ffffff" d="M 282.808594 126.839844 L 82.480469 126.839844 C 82.167969 126.839844 81.855469 126.761719 81.582031 126.5625 L 69.914062 119.164062 C 67.996094 117.953125 68.664062 114.230469 70.816406 114.230469 L 294.4375 114.230469 C 296.589844 114.230469 297.253906 117.953125 295.335938 119.164062 L 283.667969 126.5625 C 283.433594 126.761719 283.121094 126.839844 282.808594 126.839844 Z M 282.808594 126.839844 " fill-opacity="1" fill-rule="nonzero"/><path fill="#ffffff" d="M 282.808594 144.378906 L 82.480469 144.378906 C 82.167969 144.378906 81.855469 144.300781 81.582031 144.101562 L 69.914062 136.703125 C 67.996094 135.492188 68.664062 131.769531 70.816406 131.769531 L 294.4375 131.769531 C 296.589844 131.769531 297.253906 135.492188 295.335938 136.703125 L 283.667969 144.101562 C 283.433594 144.300781 283.121094 144.378906 282.808594 144.378906 Z M 282.808594 144.378906 " fill-opacity="1" fill-rule="nonzero"/><path fill="#ffffff" d="M 282.808594 161.957031 L 82.480469 161.957031 C 82.167969 161.957031 81.855469 161.875 81.582031 161.679688 L 69.914062 154.28125 C 67.996094 153.066406 68.664062 149.347656 70.816406 149.347656 L 294.4375 149.347656 C 296.589844 149.347656 297.253906 153.066406 295.335938 154.28125 L 283.710938 161.679688 C 283.433594 161.835938 283.121094 161.957031 282.808594 161.957031 Z M 282.808594 161.957031 " fill-opacity="1" fill-rule="nonzero"/><path fill="#ffffff" d="M 282.808594 179.492188 L 82.480469 179.492188 C 82.167969 179.492188 81.855469 179.414062 81.582031 179.21875 L 69.914062 171.820312 C 67.996094 170.605469 68.664062 166.886719 70.816406 166.886719 L 294.4375 166.886719 C 296.589844 166.886719 297.253906 170.605469 295.335938 171.820312 L 283.667969 179.21875 C 283.433594 179.414062 283.121094 179.492188 282.808594 179.492188 Z M 282.808594 179.492188 " fill-opacity="1" fill-rule="nonzero"/><path fill="#ffffff" d="M 282.808594 197.070312 L 82.480469 197.070312 C 82.167969 197.070312 81.855469 196.992188 81.582031 196.796875 L 69.914062 189.398438 C 67.996094 188.183594 68.664062 184.464844 70.816406 184.464844 L 294.4375 184.464844 C 296.589844 184.464844 297.253906 188.183594 295.335938 189.398438 L 283.667969 196.796875 C 283.433594 196.953125 283.121094 197.070312 282.808594 197.070312 Z M 282.808594 197.070312 " fill-opacity="1" fill-rule="nonzero"/><path fill="#ffffff" d="M 282.808594 214.609375 L 82.480469 214.609375 C 82.167969 214.609375 81.855469 214.53125 81.582031 214.335938 L 69.914062 206.9375 C 67.996094 205.722656 68.664062 202.003906 70.816406 202.003906 L 294.4375 202.003906 C 296.589844 202.003906 297.253906 205.722656 295.335938 206.9375 L 283.667969 214.335938 C 283.433594 214.53125 283.121094 214.609375 282.808594 214.609375 Z M 282.808594 214.609375 " fill-opacity="1" fill-rule="nonzero"/><path fill="#ffffff" d="M 282.808594 232.148438 L 82.480469 232.148438 C 82.167969 232.148438 81.855469 232.070312 81.582031 231.875 L 69.914062 224.476562 C 67.996094 223.261719 68.664062 219.542969 70.816406 219.542969 L 294.4375 219.542969 C 296.589844 219.542969 297.253906 223.261719 295.335938 224.476562 L 283.667969 231.875 C 283.433594 232.070312 283.121094 232.148438 282.808594 232.148438 Z M 282.808594 232.148438 " fill-opacity="1" fill-rule="nonzero"/><path fill="#ffffff" d="M 282.808594 249.726562 L 82.480469 249.726562 C 82.167969 249.726562 81.855469 249.648438 81.582031 249.453125 L 69.914062 242.054688 C 67.996094 240.839844 68.664062 237.121094 70.816406 237.121094 L 294.4375 237.121094 C 296.589844 237.121094 297.253906 240.839844 295.335938 242.054688 L 283.667969 249.453125 C 283.433594 249.648438 283.121094 249.726562 282.808594 249.726562 Z M 282.808594 249.726562 " fill-opacity="1" fill-rule="nonzero"/><path fill="#ffffff" d="M 282.808594 267.265625 L 82.480469 267.265625 C 82.167969 267.265625 81.855469 267.1875 81.582031 266.992188 L 69.914062 259.59375 C 67.996094 258.378906 68.664062 254.660156 70.816406 254.660156 L 294.4375 254.660156 C 296.589844 254.660156 297.253906 258.378906 295.335938 259.59375 L 283.667969 266.992188 C 283.433594 267.1875 283.121094 267.265625 282.808594 267.265625 Z M 282.808594 267.265625 " fill-opacity="1" fill-rule="nonzero"/><path fill="#ffffff" d="M 282.808594 284.84375 L 82.480469 284.84375 C 82.167969 284.84375 81.855469 284.765625 81.582031 284.570312 L 69.953125 277.171875 C 68.035156 275.957031 68.703125 272.238281 70.855469 272.238281 L 294.476562 272.238281 C 296.628906 272.238281 297.292969 275.957031 295.375 277.171875 L 283.710938 284.570312 C 283.433594 284.726562 283.121094 284.84375 282.808594 284.84375 Z M 282.808594 284.84375 " fill-opacity="1" fill-rule="nonzero"/><path fill="#ffffff" d="M 282.808594 302.382812 L 82.480469 302.382812 C 82.167969 302.382812 81.855469 302.304688 81.582031 302.109375 L 69.914062 294.710938 C 67.996094 293.496094 68.664062 289.777344 70.816406 289.777344 L 294.4375 289.777344 C 296.589844 289.777344 297.253906 293.496094 295.335938 294.710938 L 283.667969 302.109375 C 283.433594 302.304688 283.121094 302.382812 282.808594 302.382812 Z M 282.808594 302.382812 " fill-opacity="1" fill-rule="nonzero"/><path fill="#ffffff" d="M 282.808594 319.960938 L 82.480469 319.960938 C 82.167969 319.960938 81.855469 319.882812 81.582031 319.6875 L 69.914062 312.289062 C 67.996094 311.074219 68.664062 307.355469 70.816406 307.355469 L 294.4375 307.355469 C 296.589844 307.355469 297.253906 311.074219 295.335938 312.289062 L 283.667969 319.6875 C 283.433594 319.84375 283.121094 319.960938 282.808594 319.960938 Z M 282.808594 319.960938 " fill-opacity="1" fill-rule="nonzero"/><g clip-path="url(#63d8c97799)"><path fill="#ffffff" d="M 282.808594 337.5 L 82.480469 337.5 C 82.167969 337.5 81.855469 337.421875 81.582031 337.226562 L 69.914062 329.828125 C 67.996094 328.613281 68.664062 324.894531 70.816406 324.894531 L 294.4375 324.894531 C 296.589844 324.894531 297.253906 328.613281 295.335938 329.828125 L 283.667969 337.226562 C 283.433594 337.421875 283.121094 337.5 282.808594 337.5 Z M 282.808594 337.5 " fill-opacity="1" fill-rule="nonzero"/></g><g clip-path="url(#8a06b3b669)"><path fill="#ffffff" d="M 313.65625 42.550781 L 313.65625 72.695312 C 313.65625 73.515625 313.148438 74.183594 312.484375 74.183594 L 301.207031 74.183594 C 300.582031 74.183594 300.035156 73.515625 300.035156 72.695312 L 300.035156 56.214844 C 300.035156 55.351562 299.484375 54.6875 298.859375 54.6875 L 63.222656 54.6875 C 62.203125 54.6875 61.34375 53.628906 61.34375 52.257812 L 61.34375 39.925781 C 61.34375 38.597656 62.164062 37.5 63.222656 37.5 L 309.78125 37.5 C 311.9375 37.539062 313.65625 39.769531 313.65625 42.550781 Z M 313.65625 42.550781 " fill-opacity="1" fill-rule="nonzero"/></g><path fill="#ffffff" d="M 307.863281 267.617188 L 305.867188 267.617188 C 304.105469 267.617188 302.65625 266.171875 302.65625 264.410156 L 302.65625 245.265625 C 302.65625 243.503906 304.105469 242.054688 305.867188 242.054688 L 307.863281 242.054688 C 309.625 242.054688 311.074219 243.503906 311.074219 245.265625 L 311.074219 264.410156 C 311.074219 266.171875 309.625 267.617188 307.863281 267.617188 Z M 307.863281 267.617188 " fill-opacity="1" fill-rule="nonzero"/><path fill="#ffffff" d="M 305.28125 54.648438 L 308.414062 54.648438 L 308.414062 256.929688 L 305.28125 256.929688 Z M 305.28125 54.648438 " fill-opacity="1" fill-rule="nonzero"/><path fill="#ffffff" d="M 272.355469 43.253906 L 276.074219 43.253906 L 276.074219 331.195312 L 272.355469 331.195312 Z M 272.355469 43.253906 " fill-opacity="1" fill-rule="nonzero"/><path fill="#ffffff" d="M 98.964844 43.253906 L 102.683594 43.253906 L 102.683594 331.195312 L 98.964844 331.195312 Z M 98.964844 43.253906 " fill-opacity="1" fill-rule="nonzero"/></svg>