<svg xmlns="http://www.w3.org/2000/svg" xmlns:xlink="http://www.w3.org/1999/xlink" width="500" zoomAndPan="magnify" viewBox="0 0 375 374.999991" height="500" preserveAspectRatio="xMidYMid meet" version="1.0"><defs><clipPath id="590c7ff240"><path d="M 38.0625 39 L 337 39 L 337 337.5 L 38.0625 337.5 Z M 38.0625 39 " clip-rule="nonzero"/></clipPath></defs><g clip-path="url(#590c7ff240)"><path fill="#ffffff" d="M 284.679688 42.386719 C 284.628906 49.972656 282.515625 57.605469 279.324219 63.070312 C 276.128906 68.546875 272.109375 71.511719 268.484375 71.511719 C 209.125 71.597656 149.675781 71.558594 90.285156 71.558594 C 77.777344 71.558594 67.609375 81.722656 67.609375 94.226562 L 67.609375 231.027344 C 62.238281 236.511719 60.234375 243.773438 59.910156 250.808594 C 59.617188 257.160156 60.648438 263.363281 61.945312 268.636719 L 39.507812 289.421875 C 38.160156 290.667969 38.117188 292.785156 39.410156 294.085938 L 81.53125 336.191406 C 82.796875 337.460938 84.851562 337.460938 86.117188 336.191406 L 108.101562 314.222656 C 116.90625 316.179688 127.925781 316.261719 136.988281 311.230469 L 284.675781 311.230469 C 297.183594 311.230469 307.375 301.066406 307.375 288.5625 L 307.375 171.789062 C 307.375 162.875 309.832031 153.945312 313.449219 147.09375 C 317.1875 140.210938 322.011719 136.167969 326.769531 136.167969 C 331.09375 136.167969 331.09375 129.683594 326.769531 129.683594 C 322.082031 129.683594 317.296875 125.96875 313.546875 119.308594 C 309.804688 112.660156 307.378906 103.4375 307.324219 94.25 C 307.324219 87.859375 305.117188 83.574219 302.28125 79.878906 C 303.980469 78.644531 305.71875 77.992188 307.375 77.992188 C 312.09375 77.992188 311.472656 71.515625 307.375 71.515625 C 303.753906 71.515625 299.738281 68.554688 296.542969 63.078125 C 293.351562 57.609375 291.207031 49.972656 291.15625 42.386719 C 291.15625 38.050781 284.679688 37.910156 284.679688 42.386719 Z M 287.933594 59.992188 C 290.746094 66.792969 293.503906 71.386719 298.222656 74.78125 C 292.664062 79.011719 289.949219 84.726562 287.933594 89.898438 C 286.109375 84.03125 281.179688 77.003906 277.519531 74.78125 C 280.820312 72.960938 285.832031 66.421875 287.933594 59.992188 Z M 268.484375 77.984375 C 272.164062 77.984375 276.234375 81.1875 279.421875 86.828125 C 282.605469 92.460938 284.679688 99.917969 284.679688 107.152344 C 284.679688 111.390625 291.160156 111.71875 291.160156 107.175781 C 291.160156 100.089844 293.347656 92.460938 296.449219 86.828125 C 296.878906 86.066406 297.324219 85.351562 297.785156 84.683594 C 299.679688 87.273438 300.824219 90.4375 300.886719 93.917969 C 300.886719 103 298.480469 112.257812 294.625 119.296875 C 290.878906 125.957031 286.089844 129.671875 281.402344 129.671875 C 277.078125 129.671875 277.078125 136.15625 281.402344 136.15625 C 286.160156 136.15625 290.992188 140.203125 294.726562 147.082031 C 298.460938 153.957031 300.804688 163.246094 300.847656 171.78125 C 300.945312 212.441406 300.894531 253.734375 300.894531 288.550781 C 300.894531 297.578125 293.707031 304.738281 284.675781 304.738281 L 145.042969 304.738281 L 195.992188 253.835938 C 201.0625 248.765625 201.136719 240.476562 196.089844 235.425781 C 194.410156 233.746094 192.363281 232.636719 190.203125 232.085938 L 198.257812 224.042969 C 203.335938 218.976562 203.410156 210.679688 198.359375 205.628906 C 196.683594 203.957031 194.664062 202.84375 192.515625 202.289062 L 195.964844 198.839844 C 201.042969 193.773438 201.136719 185.484375 196.089844 180.433594 C 193.5625 177.910156 190.21875 176.679688 186.882812 176.699219 C 183.542969 176.726562 180.210938 177.992188 177.675781 180.527344 L 174.207031 183.996094 C 173.652344 181.851562 172.546875 179.832031 170.878906 178.160156 L 170.878906 178.136719 C 165.816406 173.078125 157.726562 173.152344 152.464844 178.257812 L 134.78125 195.921875 C 134.234375 193.191406 132.898438 190.578125 130.789062 188.46875 C 125.183594 182.863281 116.167969 182.65625 110.300781 188.347656 L 74.085938 224.53125 L 74.085938 94.214844 C 74.085938 85.1875 81.246094 78.027344 90.277344 78.027344 C 152.332031 77.550781 215.335938 78.410156 268.484375 77.976562 Z M 313.859375 95.84375 C 313.859375 102.066406 318.972656 107.179688 325.195312 107.179688 C 331.421875 107.179688 336.53125 102.066406 336.53125 95.84375 C 336.53125 89.621094 331.5 84.511719 325.195312 84.511719 C 318.894531 84.511719 313.859375 89.570312 313.859375 95.84375 Z M 325.195312 90.988281 C 327.917969 90.988281 330.050781 93.121094 330.050781 95.84375 C 330.050781 98.5625 327.917969 100.695312 325.195312 100.695312 C 322.476562 100.695312 320.335938 98.5625 320.335938 95.84375 C 320.335938 93.121094 322.476562 90.988281 325.195312 90.988281 Z M 268.484375 97.441406 C 263.15625 97.441406 258.777344 101.851562 258.777344 107.179688 C 258.777344 112.507812 263.15625 116.882812 268.484375 116.882812 C 273.816406 116.882812 278.226562 112.507812 278.226562 107.179688 C 278.222656 101.851562 273.816406 97.441406 268.484375 97.441406 Z M 245.8125 100.71875 C 243.957031 100.71875 242.578125 102.144531 242.558594 103.925781 C 241.953125 109.671875 240.757812 115.667969 238.09375 120.09375 C 235.449219 124.375 232.171875 126.617188 229.625 126.617188 C 225.339844 126.617188 225.21875 133.101562 229.625 133.101562 C 232.203125 133.101562 235.496094 135.488281 238.136719 139.890625 C 240.769531 144.277344 242.523438 150.296875 242.558594 155.742188 C 242.558594 160.164062 249.046875 160.117188 249.046875 155.742188 C 249.070312 150.292969 250.859375 144.285156 253.496094 139.890625 C 256.136719 135.488281 259.429688 133.101562 262.007812 133.101562 C 266.246094 133.101562 266.488281 126.617188 262.007812 126.617188 C 259.460938 126.617188 256.183594 124.375 253.539062 120.09375 C 250.898438 115.820312 249.078125 109.855469 249.046875 103.949219 C 249.046875 101.890625 247.671875 100.71875 245.8125 100.71875 Z M 268.484375 103.925781 C 270.230469 103.925781 271.738281 105.351562 271.738281 107.179688 C 271.738281 109.003906 270.3125 110.40625 268.484375 110.40625 C 266.65625 110.40625 265.257812 109.003906 265.257812 107.179688 C 265.257812 105.191406 266.957031 103.925781 268.484375 103.925781 Z M 304.074219 113.609375 C 306.050781 119.839844 310.152344 128.382812 317.019531 132.953125 C 310.242188 137.460938 306.335938 145.957031 304.074219 152.703125 C 301.84375 144.796875 296.566406 136.472656 291.15625 132.953125 C 297.398438 128.917969 302.085938 120.355469 304.074219 113.609375 Z M 245.8125 119.21875 C 247.382812 123.101562 250.269531 127.285156 253.601562 129.890625 C 249.558594 133.074219 247.335938 137.289062 245.8125 140.722656 C 244.328125 137.042969 241.394531 132.394531 238.105469 129.914062 C 240.984375 127.699219 244.292969 123.210938 245.8125 119.21875 Z M 166.296875 182.730469 C 168.855469 185.289062 168.847656 189.335938 166.199219 191.980469 C 151.769531 206.445312 137.242188 220.9375 122.769531 235.402344 C 121.496094 236.667969 121.496094 238.726562 122.769531 239.992188 C 124.035156 241.261719 126.089844 241.261719 127.355469 239.992188 C 145.660156 221.703125 163.953125 203.398438 182.246094 185.121094 C 184.890625 182.480469 188.945312 182.46875 191.503906 185.023438 C 194.0625 187.582031 194.058594 191.632812 191.40625 194.277344 L 136.492188 249.152344 C 135.234375 250.414062 135.234375 252.457031 136.492188 253.71875 C 137.757812 254.992188 139.820312 254.992188 141.085938 253.71875 L 184.519531 210.296875 C 186.957031 207.859375 191.128906 207.558594 193.796875 210.222656 C 196.359375 212.78125 196.355469 216.808594 193.699219 219.453125 C 179.210938 233.949219 164.78125 248.398438 150.265625 262.898438 C 148.992188 264.167969 148.992188 266.226562 150.265625 267.492188 C 151.53125 268.765625 153.589844 268.765625 154.859375 267.492188 L 182.265625 240.089844 C 184.910156 237.441406 188.9375 237.4375 191.496094 239.992188 C 194.054688 242.546875 194.050781 246.601562 191.398438 249.246094 L 138.800781 301.820312 C 130.835938 309.789062 117.140625 310.371094 107.617188 307.820312 C 106.496094 307.519531 105.304688 307.84375 104.484375 308.660156 L 83.816406 329.316406 L 46.367188 291.894531 L 67.75 272.078125 C 68.617188 271.257812 68.964844 270.027344 68.65625 268.875 C 67.257812 263.664062 66.078125 257.175781 66.359375 251.085938 C 66.640625 244.996094 68.320312 239.464844 72.363281 235.421875 L 114.863281 192.9375 C 117.992188 189.804688 122.972656 189.800781 126.203125 193.035156 C 129.402344 196.238281 129.445312 201.171875 126.386719 204.300781 L 126.324219 204.363281 L 126.324219 204.371094 L 109.011719 221.652344 C 107.738281 222.917969 107.738281 224.980469 109.011719 226.246094 C 110.277344 227.515625 112.332031 227.515625 113.597656 226.246094 L 157.035156 182.824219 C 159.574219 180.28125 164.039062 180.609375 166.296875 182.726562 Z M 166.296875 182.730469 " fill-opacity="1" fill-rule="nonzero"/></g></svg>