<svg xmlns="http://www.w3.org/2000/svg" xmlns:xlink="http://www.w3.org/1999/xlink" width="500" zoomAndPan="magnify" viewBox="0 0 375 374.999991" height="500" preserveAspectRatio="xMidYMid meet" version="1.0"><defs><clipPath id="357127afc1"><path d="M 37.5 158 L 73 158 L 73 182 L 37.5 182 Z M 37.5 158 " clip-rule="nonzero"/></clipPath><clipPath id="b87afb21a1"><path d="M 171 142 L 335 142 L 335 330 L 171 330 Z M 171 142 " clip-rule="nonzero"/></clipPath></defs><path fill="#ffffff" d="M 162.214844 250.691406 C 117.511719 250.691406 81.148438 214.324219 81.148438 169.625 C 81.148438 124.925781 117.511719 88.558594 162.214844 88.558594 C 181.796875 88.558594 200.703125 95.640625 215.445312 108.488281 C 230.046875 121.210938 239.625 138.722656 242.414062 157.792969 C 242.683594 159.632812 241.410156 161.347656 239.566406 161.617188 C 237.714844 161.890625 236.007812 160.613281 235.738281 158.769531 C 230.445312 122.59375 198.832031 95.308594 162.214844 95.308594 C 121.238281 95.308594 87.898438 128.652344 87.898438 169.625 C 87.898438 210.601562 121.238281 243.941406 162.214844 243.941406 C 168.917969 243.941406 175.578125 243.042969 182 241.273438 C 183.792969 240.78125 185.65625 241.832031 186.148438 243.628906 C 186.644531 245.425781 185.589844 247.289062 183.792969 247.78125 C 176.789062 249.710938 169.523438 250.691406 162.214844 250.691406 Z M 162.214844 250.691406 " fill-opacity="1" fill-rule="nonzero"/><path fill="#ffffff" d="M 114.191406 185.867188 C 112.699219 185.867188 111.335938 184.875 110.929688 183.363281 C 104.71875 160.195312 114.894531 135.636719 135.671875 123.640625 C 139.6875 121.320312 143.992188 119.539062 148.476562 118.335938 C 150.277344 117.851562 152.128906 118.921875 152.605469 120.726562 C 153.085938 122.527344 152.019531 124.378906 150.21875 124.855469 C 146.308594 125.902344 142.550781 127.460938 139.039062 129.488281 C 120.90625 139.957031 112.03125 161.390625 117.445312 181.613281 C 117.925781 183.417969 116.859375 185.265625 115.054688 185.746094 C 114.773438 185.824219 114.480469 185.867188 114.191406 185.867188 Z M 114.191406 185.867188 " fill-opacity="1" fill-rule="nonzero"/><path fill="#ffffff" d="M 170.433594 79.898438 L 156.265625 79.898438 C 154.984375 79.898438 153.808594 79.171875 153.242188 78.015625 C 148.664062 68.742188 150.941406 61.585938 153.660156 57.210938 C 158.546875 49.347656 168.152344 45.019531 170.441406 45.019531 C 171.5625 45.019531 172.617188 45.582031 173.242188 46.503906 C 173.871094 47.4375 173.992188 48.617188 173.574219 49.65625 C 169.429688 59.910156 169.375 67.6875 173.390625 74.871094 C 173.980469 75.917969 173.964844 77.191406 173.359375 78.226562 C 172.742188 79.265625 171.636719 79.898438 170.433594 79.898438 Z M 158.464844 73.148438 L 165.242188 73.148438 C 163.050781 66.734375 163.429688 60.574219 164.671875 55.246094 C 162.308594 57.003906 159.882812 59.40625 158.507812 62.414062 C 156.996094 65.742188 156.976562 69.265625 158.464844 73.148438 Z M 158.464844 73.148438 " fill-opacity="1" fill-rule="nonzero"/><path fill="#ffffff" d="M 110.519531 95.351562 C 109.863281 95.351562 109.210938 95.160156 108.640625 94.785156 C 100.042969 89.039062 98.4375 81.703125 98.605469 76.566406 C 98.910156 67.308594 105.058594 58.765625 107.042969 57.617188 C 108.015625 57.054688 109.203125 57.015625 110.207031 57.507812 C 111.214844 58 111.917969 58.960938 112.070312 60.074219 C 113.609375 71.03125 117.453125 77.785156 124.519531 82 C 125.546875 82.613281 126.171875 83.726562 126.167969 84.921875 C 126.160156 86.117188 125.519531 87.222656 124.480469 87.824219 L 112.207031 94.914062 C 111.679688 95.195312 111.097656 95.351562 110.519531 95.351562 Z M 107.152344 69.339844 C 105.984375 72.042969 105.085938 75.328125 105.402344 78.628906 C 105.753906 82.269531 107.5 85.332031 110.726562 87.953125 L 116.59375 84.5625 C 111.496094 80.109375 108.738281 74.578125 107.152344 69.339844 Z M 107.152344 69.339844 " fill-opacity="1" fill-rule="nonzero"/><path fill="#ffffff" d="M 78.617188 131.601562 C 78.542969 131.601562 78.46875 131.601562 78.394531 131.59375 C 68.074219 130.917969 63.015625 125.371094 60.585938 120.832031 C 56.21875 112.664062 57.277344 102.1875 58.417969 100.203125 C 58.980469 99.230469 59.984375 98.605469 61.105469 98.523438 C 62.226562 98.441406 63.3125 98.929688 64.003906 99.8125 C 70.8125 108.527344 77.515625 112.464844 85.746094 112.578125 C 86.941406 112.589844 88.039062 113.246094 88.632812 114.285156 C 89.226562 115.324219 89.222656 116.601562 88.621094 117.640625 L 81.53125 129.914062 C 80.933594 130.960938 79.816406 131.601562 78.617188 131.601562 Z M 64.386719 110.308594 C 64.730469 113.234375 65.59375 116.535156 67.519531 119.226562 C 69.640625 122.203125 72.691406 123.984375 76.792969 124.632812 L 80.183594 118.769531 C 73.535156 117.457031 68.382812 114.050781 64.386719 110.308594 Z M 64.507812 103.046875 Z M 64.507812 103.046875 " fill-opacity="1" fill-rule="nonzero"/><g clip-path="url(#357127afc1)"><path fill="#ffffff" d="M 60.230469 181.214844 C 55.886719 181.214844 52.371094 179.777344 49.8125 178.183594 C 41.949219 173.296875 37.621094 163.691406 37.621094 161.402344 C 37.621094 160.28125 38.183594 159.230469 39.105469 158.601562 C 40.03125 157.972656 41.21875 157.851562 42.257812 158.269531 C 52.511719 162.414062 60.289062 162.46875 67.472656 158.453125 C 68.519531 157.867188 69.792969 157.878906 70.828125 158.488281 C 71.859375 159.09375 72.496094 160.203125 72.496094 161.394531 L 72.496094 175.566406 C 72.496094 176.847656 71.765625 178.023438 70.609375 178.589844 C 66.769531 180.492188 63.292969 181.214844 60.230469 181.214844 Z M 69.117188 175.570312 Z M 47.835938 167.167969 C 49.589844 169.53125 51.992188 171.953125 55.003906 173.332031 C 58.332031 174.851562 61.855469 174.863281 65.738281 173.378906 L 65.738281 166.601562 C 59.335938 168.789062 53.167969 168.417969 47.835938 167.167969 Z M 47.835938 167.167969 " fill-opacity="1" fill-rule="nonzero"/></g><path fill="#ffffff" d="M 69.847656 233.246094 C 69.613281 233.246094 69.382812 233.242188 69.152344 233.234375 C 59.898438 232.929688 51.351562 226.78125 50.203125 224.796875 C 49.644531 223.824219 49.605469 222.636719 50.097656 221.628906 C 50.589844 220.625 51.546875 219.921875 52.660156 219.765625 C 63.617188 218.226562 70.375 214.386719 74.585938 207.320312 C 75.199219 206.292969 76.34375 205.660156 77.507812 205.671875 C 78.703125 205.679688 79.8125 206.320312 80.414062 207.359375 L 87.5 219.632812 C 88.140625 220.746094 88.09375 222.121094 87.386719 223.195312 C 81.882812 231.417969 74.9375 233.246094 69.847656 233.246094 Z M 61.9375 224.6875 C 64.636719 225.855469 67.929688 226.753906 71.226562 226.4375 C 74.863281 226.085938 77.929688 224.335938 80.546875 221.109375 L 77.160156 215.242188 C 72.703125 220.339844 67.175781 223.101562 61.9375 224.6875 Z M 61.9375 224.6875 " fill-opacity="1" fill-rule="nonzero"/><path fill="#ffffff" d="M 99.582031 274.417969 C 96.269531 274.417969 93.683594 273.925781 92.800781 273.410156 C 91.828125 272.851562 91.199219 271.84375 91.117188 270.726562 C 91.039062 269.605469 91.523438 268.519531 92.40625 267.828125 C 101.121094 261.019531 105.058594 254.316406 105.171875 246.085938 C 105.1875 244.890625 105.839844 243.792969 106.878906 243.195312 C 107.921875 242.601562 109.195312 242.609375 110.234375 243.210938 L 122.507812 250.296875 C 123.621094 250.941406 124.269531 252.160156 124.1875 253.445312 C 123.511719 263.765625 117.964844 268.828125 113.429688 271.25 C 108.90625 273.660156 103.6875 274.417969 99.582031 274.417969 Z M 111.355469 251.65625 C 110.046875 258.296875 106.644531 263.453125 102.898438 267.445312 C 105.820312 267.101562 109.121094 266.234375 111.816406 264.3125 C 114.792969 262.191406 116.574219 259.140625 117.222656 255.039062 Z M 95.640625 267.328125 Z M 95.640625 267.328125 " fill-opacity="1" fill-rule="nonzero"/><path fill="#ffffff" d="M 153.992188 294.214844 C 152.871094 294.214844 151.816406 293.65625 151.191406 292.730469 C 150.5625 291.800781 150.441406 290.617188 150.859375 289.578125 C 155.003906 279.324219 155.058594 271.546875 151.042969 264.367188 C 150.453125 263.320312 150.46875 262.042969 151.074219 261.011719 C 151.683594 259.980469 152.789062 259.34375 153.984375 259.34375 L 168.152344 259.34375 C 169.4375 259.34375 170.609375 260.074219 171.175781 261.226562 C 175.753906 270.503906 173.480469 277.65625 170.757812 282.03125 C 165.886719 289.890625 156.285156 294.214844 153.992188 294.214844 Z M 159.1875 266.09375 C 161.382812 272.507812 161.003906 278.671875 159.761719 284.003906 C 162.125 282.246094 164.546875 279.84375 165.925781 276.835938 C 167.445312 273.507812 167.464844 269.976562 165.972656 266.101562 L 159.1875 266.101562 Z M 159.1875 266.09375 " fill-opacity="1" fill-rule="nonzero"/><path fill="#ffffff" d="M 246.949219 133.570312 C 246.945312 133.570312 246.9375 133.570312 246.929688 133.570312 C 245.734375 133.566406 244.628906 132.921875 244.027344 131.882812 L 236.941406 119.613281 C 236.296875 118.496094 236.34375 117.121094 237.054688 116.046875 C 242.800781 107.449219 250.136719 105.835938 255.273438 106.007812 C 264.527344 106.3125 273.074219 112.464844 274.222656 114.449219 C 274.78125 115.417969 274.824219 116.609375 274.328125 117.613281 C 273.835938 118.621094 272.878906 119.320312 271.765625 119.476562 C 260.808594 121.015625 254.050781 124.855469 249.839844 131.925781 C 249.238281 132.945312 248.136719 133.570312 246.949219 133.570312 Z M 243.886719 118.140625 L 247.273438 124.007812 C 251.730469 118.902344 257.257812 116.140625 262.496094 114.554688 C 259.796875 113.386719 256.507812 112.488281 253.207031 112.808594 C 249.570312 113.160156 246.503906 114.90625 243.886719 118.140625 Z M 268.726562 118.296875 Z M 268.726562 118.296875 " fill-opacity="1" fill-rule="nonzero"/><path fill="#ffffff" d="M 215.886719 96.484375 C 215.304688 96.484375 214.71875 96.335938 214.199219 96.03125 L 201.925781 88.945312 C 200.8125 88.304688 200.164062 87.082031 200.246094 85.800781 C 200.917969 75.476562 206.46875 70.414062 211.011719 67.992188 C 219.179688 63.625 229.65625 64.683594 231.640625 65.824219 C 232.613281 66.386719 233.242188 67.390625 233.320312 68.511719 C 233.402344 69.632812 232.917969 70.71875 232.03125 71.40625 C 223.316406 78.21875 219.382812 84.921875 219.265625 93.148438 C 219.253906 94.34375 218.597656 95.445312 217.558594 96.039062 C 217.03125 96.335938 216.460938 96.484375 215.886719 96.484375 Z M 207.203125 84.199219 L 213.070312 87.589844 C 214.378906 80.9375 217.78125 75.789062 221.527344 71.792969 C 218.605469 72.136719 215.304688 73 212.609375 74.925781 C 209.632812 77.050781 207.851562 80.09375 207.203125 84.199219 Z M 228.792969 71.914062 Z M 228.792969 71.914062 " fill-opacity="1" fill-rule="nonzero"/><g clip-path="url(#b87afb21a1)"><path fill="#ffffff" d="M 252.882812 330.027344 C 252.484375 330.027344 252.082031 329.953125 251.695312 329.8125 C 230.074219 321.703125 212.410156 307.738281 199.199219 288.304688 C 188.703125 272.863281 181 253.984375 176.308594 232.179688 C 168.363281 195.25 171.746094 163.117188 171.894531 161.769531 C 172.0625 160.203125 173.296875 158.964844 174.855469 158.785156 C 176.421875 158.59375 177.902344 159.527344 178.425781 161.011719 C 181.871094 170.726562 186.871094 176.410156 193.296875 177.902344 C 210.296875 181.851562 234.699219 158.042969 245.113281 147.867188 C 250.128906 142.96875 251.035156 142.082031 252.882812 142.082031 C 254.734375 142.082031 255.636719 142.96875 260.652344 147.863281 C 271.070312 158.027344 295.464844 181.835938 312.46875 177.894531 C 318.894531 176.402344 323.898438 170.71875 327.339844 161.003906 C 327.867188 159.519531 329.351562 158.59375 330.910156 158.777344 C 332.476562 158.960938 333.707031 160.195312 333.875 161.761719 C 334.023438 163.109375 337.40625 195.242188 329.460938 232.175781 C 324.769531 253.976562 317.066406 272.863281 306.570312 288.296875 C 293.359375 307.730469 275.695312 321.691406 254.070312 329.804688 C 253.6875 329.953125 253.289062 330.027344 252.882812 330.027344 Z M 177.921875 174.808594 C 177.605469 187.480469 178.101562 208.488281 182.949219 230.933594 C 193.121094 277.996094 216.648438 308.980469 252.882812 323.039062 C 289.167969 308.960938 312.707031 277.921875 322.859375 230.761719 C 327.679688 208.359375 328.171875 187.4375 327.851562 174.808594 C 324.105469 179.964844 319.476562 183.199219 313.996094 184.476562 C 312.210938 184.886719 310.390625 185.082031 308.546875 185.082031 C 289.105469 185.082031 267.039062 163.542969 255.933594 152.703125 C 254.847656 151.640625 253.746094 150.5625 252.882812 149.753906 C 252.019531 150.570312 250.914062 151.640625 249.832031 152.703125 C 237.675781 164.570312 212.386719 189.261719 191.773438 184.476562 C 186.296875 183.199219 181.667969 179.960938 177.921875 174.808594 Z M 177.921875 174.808594 " fill-opacity="1" fill-rule="nonzero"/></g><path fill="#ffffff" d="M 231.039062 269.335938 C 230.175781 269.335938 229.3125 269.003906 228.648438 268.347656 L 212.523438 252.222656 C 211.207031 250.90625 211.207031 248.765625 212.523438 247.449219 C 213.839844 246.132812 215.980469 246.132812 217.296875 247.449219 L 231.03125 261.1875 L 288.457031 203.761719 C 289.773438 202.445312 291.914062 202.445312 293.230469 203.761719 C 294.546875 205.078125 294.546875 207.21875 293.230469 208.535156 L 233.414062 268.34375 C 232.769531 269.003906 231.902344 269.335938 231.039062 269.335938 Z M 231.039062 269.335938 " fill-opacity="1" fill-rule="nonzero"/></svg>