<svg xmlns="http://www.w3.org/2000/svg" xmlns:xlink="http://www.w3.org/1999/xlink" width="500" zoomAndPan="magnify" viewBox="0 0 375 374.999991" height="500" preserveAspectRatio="xMidYMid meet" version="1.0"><defs><clipPath id="87f8e6b1fd"><path d="M 37.5 37.5 L 337.5 37.5 L 337.5 337.5 L 37.5 337.5 Z M 37.5 37.5 " clip-rule="nonzero"/></clipPath></defs><g clip-path="url(#87f8e6b1fd)"><path fill="#ffffff" d="M 312.5 327.5 L 242.5 327.5 C 234.21875 327.5 227.5 320.78125 227.5 312.5 L 227.5 307.5 L 327.5 307.5 L 327.5 312.5 C 327.5 320.78125 320.78125 327.5 312.5 327.5 Z M 47.5 277.5 L 47.5 267.5 L 217.5 267.5 L 217.5 277.5 Z M 47.5 47.5 L 277.5 47.5 L 277.5 57.5 L 47.5 57.5 Z M 267.5 157.5 L 267.5 107.5 L 277.5 107.5 L 277.5 157.5 Z M 177.5 107.5 L 257.5 107.5 L 257.5 157.5 L 242.5 157.5 C 228.710938 157.5 217.5 168.710938 217.5 182.5 L 217.5 257.5 L 177.5 257.5 Z M 157.5 107.5 L 167.5 107.5 L 167.5 257.5 L 157.5 257.5 Z M 47.5 107.5 L 57.5 107.5 L 57.5 257.5 L 47.5 257.5 Z M 277.5 77.5 L 47.5 77.5 L 47.5 67.5 L 277.5 67.5 Z M 47.5 97.5 L 47.5 87.5 L 277.5 87.5 L 277.5 97.5 Z M 67.5 257.5 L 67.5 107.5 L 147.5 107.5 L 147.5 257.5 Z M 327.5 297.5 L 227.5 297.5 L 227.5 197.5 L 327.5 197.5 Z M 327.5 182.5 L 327.5 187.5 L 227.5 187.5 L 227.5 182.5 C 227.5 174.21875 234.21875 167.5 242.5 167.5 L 312.5 167.5 C 320.78125 167.5 327.5 174.21875 327.5 182.5 Z M 312.5 157.5 L 287.5 157.5 L 287.5 42.5 C 287.5 39.746094 285.253906 37.5 282.5 37.5 L 42.5 37.5 C 39.746094 37.5 37.5 39.746094 37.5 42.5 L 37.5 282.5 C 37.5 285.253906 39.746094 287.5 42.5 287.5 L 217.5 287.5 L 217.5 312.5 C 217.5 326.289062 228.710938 337.5 242.5 337.5 L 312.5 337.5 C 326.289062 337.5 337.5 326.289062 337.5 312.5 L 337.5 182.5 C 337.5 168.710938 326.289062 157.5 312.5 157.5 " fill-opacity="1" fill-rule="nonzero"/></g><path fill="#ffffff" d="M 272.5 172.5 C 269.746094 172.5 267.5 174.746094 267.5 177.5 C 267.5 180.253906 269.746094 182.5 272.5 182.5 L 282.5 182.5 C 285.253906 182.5 287.5 180.253906 287.5 177.5 C 287.5 174.746094 285.253906 172.5 282.5 172.5 L 272.5 172.5 " fill-opacity="1" fill-rule="nonzero"/><path fill="#ffffff" d="M 287.5 312.5 L 267.5 312.5 C 264.746094 312.5 262.5 314.746094 262.5 317.5 C 262.5 320.253906 264.746094 322.5 267.5 322.5 L 287.5 322.5 C 290.253906 322.5 292.5 320.253906 292.5 317.5 C 292.5 314.746094 290.253906 312.5 287.5 312.5 " fill-opacity="1" fill-rule="nonzero"/><path fill="#ffffff" d="M 132.246094 170.175781 L 111.035156 148.964844 C 110.566406 148.515625 110.019531 148.144531 109.414062 147.890625 C 108.183594 147.382812 106.816406 147.382812 105.585938 147.890625 C 104.980469 148.144531 104.433594 148.515625 103.964844 148.964844 L 82.753906 170.175781 C 80.800781 172.128906 80.800781 175.292969 82.753906 177.246094 C 84.707031 179.199219 87.871094 179.199219 89.824219 177.246094 L 102.5 164.570312 L 102.5 217.5 C 102.5 220.253906 104.746094 222.5 107.5 222.5 C 110.253906 222.5 112.5 220.253906 112.5 217.5 L 112.5 164.570312 L 125.175781 177.246094 C 126.152344 178.222656 127.441406 178.710938 128.710938 178.710938 C 130 178.710938 131.269531 178.222656 132.246094 177.246094 C 134.199219 175.292969 134.199219 172.128906 132.246094 170.175781 " fill-opacity="1" fill-rule="nonzero"/><path fill="#ffffff" d="M 266.894531 225.175781 L 272.5 219.570312 L 272.5 237.5 C 272.5 240.253906 274.746094 242.5 277.5 242.5 C 280.253906 242.5 282.5 240.253906 282.5 237.5 L 282.5 219.570312 L 288.105469 225.175781 C 289.082031 226.152344 290.371094 226.640625 291.640625 226.640625 C 292.929688 226.640625 294.199219 226.152344 295.175781 225.175781 C 297.128906 223.222656 297.128906 220.058594 295.175781 218.105469 L 281.035156 203.964844 C 280.136719 203.066406 278.886719 202.5 277.5 202.5 C 276.113281 202.5 274.863281 203.066406 273.964844 203.964844 L 259.824219 218.105469 C 257.871094 220.058594 257.871094 223.222656 259.824219 225.175781 C 261.777344 227.128906 264.941406 227.128906 266.894531 225.175781 " fill-opacity="1" fill-rule="nonzero"/><path fill="#ffffff" d="M 273.964844 291.035156 C 274.414062 291.484375 274.960938 291.855469 275.566406 292.109375 C 276.171875 292.363281 276.835938 292.5 277.5 292.5 C 278.164062 292.5 278.828125 292.363281 279.433594 292.109375 C 280.039062 291.855469 280.585938 291.484375 281.035156 291.035156 L 295.175781 276.894531 C 297.128906 274.941406 297.128906 271.777344 295.175781 269.824219 C 293.222656 267.871094 290.058594 267.871094 288.105469 269.824219 L 282.5 275.429688 L 282.5 257.5 C 282.5 254.746094 280.253906 252.5 277.5 252.5 C 274.746094 252.5 272.5 254.746094 272.5 257.5 L 272.5 275.429688 L 266.894531 269.824219 C 264.941406 267.871094 261.777344 267.871094 259.824219 269.824219 C 257.871094 271.777344 257.871094 274.941406 259.824219 276.894531 L 273.964844 291.035156 " fill-opacity="1" fill-rule="nonzero"/><path fill="#ffffff" d="M 227.5 127.5 C 227.5 124.746094 225.253906 122.5 222.5 122.5 C 203.203125 122.5 187.5 138.203125 187.5 157.5 C 187.5 160.253906 189.746094 162.5 192.5 162.5 C 195.253906 162.5 197.5 160.253906 197.5 157.5 C 197.5 143.710938 208.710938 132.5 222.5 132.5 C 225.253906 132.5 227.5 130.253906 227.5 127.5 " fill-opacity="1" fill-rule="nonzero"/><path fill="#ffffff" d="M 217.5 157.5 C 217.5 154.746094 219.746094 152.5 222.5 152.5 C 225.253906 152.5 227.5 150.253906 227.5 147.5 C 227.5 144.746094 225.253906 142.5 222.5 142.5 C 214.21875 142.5 207.5 149.21875 207.5 157.5 C 207.5 160.253906 209.746094 162.5 212.5 162.5 C 215.253906 162.5 217.5 160.253906 217.5 157.5 " fill-opacity="1" fill-rule="nonzero"/></svg>