<?xml version="1.0" encoding="UTF-8" standalone="no"?>
<svg
   xmlns:dc="http://purl.org/dc/elements/1.1/"
   xmlns:cc="http://creativecommons.org/ns#"
   xmlns:rdf="http://www.w3.org/1999/02/22-rdf-syntax-ns#"
   xmlns:svg="http://www.w3.org/2000/svg"
   xmlns="http://www.w3.org/2000/svg"
   viewBox="0 0 74.666664 125.33333"
   height="125.33333"
   width="74.666664"
   xml:space="preserve"
   id="svg2"
   version="1.1"><metadata
     id="metadata8"><rdf:RDF><cc:Work
         rdf:about=""><dc:format>image/svg+xml</dc:format><dc:type
           rdf:resource="http://purl.org/dc/dcmitype/StillImage" /></cc:Work></rdf:RDF></metadata><defs
     id="defs6"><clipPath
       id="clipPath18"
       clipPathUnits="userSpaceOnUse"><path
         id="path16"
         d="M 0,0 H 56 V 94 H 0 Z" /></clipPath><mask
       id="mask20"
       height="1"
       width="1"
       y="0"
       x="0"
       maskUnits="userSpaceOnUse"><g
         id="g28"><g
           id="g26"
           clip-path="url(#clipPath18)"><g
             id="g24"><path
               id="path22"
               style="fill:#000000;fill-opacity:1;fill-rule:nonzero;stroke:none"
               d="M 0,56 H 56 V 0 H 0 Z" /></g></g></g></mask><clipPath
       id="clipPath36"
       clipPathUnits="userSpaceOnUse"><path
         id="path34"
         d="M 0,0 H 56 V 94 H 0 Z" /></clipPath><clipPath
       id="clipPath80"
       clipPathUnits="userSpaceOnUse"><path
         id="path78"
         d="M 0,0 H 56 V 94 H 0 Z" /></clipPath><clipPath
       id="clipPath84"
       clipPathUnits="userSpaceOnUse"><path
         id="path82"
         d="M 0,0 H 56 V 94 H 0 Z" /></clipPath><mask
       id="mask86"
       height="1"
       width="1"
       y="0"
       x="0"
       maskUnits="userSpaceOnUse"><g
         id="g94"><g
           id="g92"
           clip-path="url(#clipPath84)"><g
             id="g90"
             transform="translate(8,49)"><path
               id="path88"
               style="fill:#000000;fill-opacity:1;fill-rule:nonzero;stroke:none"
               d="M 0,45 H 48 V 0 H 0 Z" /></g></g></g></mask><clipPath
       id="clipPath98"
       clipPathUnits="userSpaceOnUse"><path
         id="path96"
         d="M 0,0 H 56 V 94 H 0 Z" /></clipPath></defs><g
     transform="matrix(1.3333333,0,0,-1.3333333,0,125.33333)"
     id="g10"><g
       id="g12"><g
         id="g14" /><g
         mask="url(#mask20)"
         id="g30"><g
           id="g32" /><g
           id="g72"><g
             id="g70"
             clip-path="url(#clipPath36)"><g
               id="g40"
               transform="translate(14.838379,18.584473)"><path
                 id="path38"
                 style="fill:#f3d2a2;fill-opacity:1;fill-rule:nonzero;stroke:none"
                 d="M 12.199336,16.9541 C 11.043092,16.955189 9.985781,16.302168 9.46887,15.267879 7.697403,11.724945 3.89687,7.678944 1.219759,5.672588 -0.657952,4.263721 -0.306397,1.350477 1.852559,0.42881 2.854648,0.001032 4.008714,0.140257 4.880136,0.794212 c 3.212223,2.410179 7.726289,7.1148 10.045001,11.747866 1.014844,2.026733 -0.4592,4.412645 -2.725801,4.412022 z" /></g><g
               id="g44"
               transform="translate(15.527832,18.642578)"><path
                 id="path42"
                 style="fill:#d2a077;fill-opacity:1;fill-rule:nonzero;stroke:none"
                 d="m 4.023288,1.032135 c 3.029133,1.829332 7.210934,5.896799 10.206624,11.432398 0.5978,1.194978 0.34891,2.639777 -0.61429,3.5658 -2.283866,-2.934712 -5.282511,-6.316022 -8.682178,-4.946978 0.234734,0.611333 0.393243,0.769844 1.722621,3.245666 1.407156,2.832512 1.734913,6.399867 1.105379,9.458088 C 4.889266,19.091665 1.100711,19.739555 0,3.893578 1.003178,0.498579 2.773243,2.3e-5 4.023288,1.032135 Z" /></g><g
               id="g48"
               transform="translate(17.973633,17.148438)"><path
                 id="path46"
                 style="fill:#f3d2a2;fill-opacity:1;fill-rule:nonzero;stroke:none"
                 d="M 18.211596,21.439453 C 17.139194,21.440229 16.145191,20.87743 15.594058,19.95763 12.378724,14.598896 8.87997,11.11694 1.191792,5.625518 -0.669897,4.194252 -0.284119,1.28443 1.886192,0.387651 2.822637,7.84e-4 3.889905,0.104076 4.734882,0.663298 c 8.365001,5.974579 12.424845,10.051065 16.088177,16.158331 1.207735,2.012733 -0.216377,4.577844 -2.563089,4.617357 -0.01618,3.11e-4 -0.0322,4.67e-4 -0.04837,4.67e-4 z" /></g><g
               id="g52"
               transform="translate(19.864258,22.507324)"><path
                 id="path50"
                 style="fill:#d2a077;fill-opacity:1;fill-rule:nonzero;stroke:none"
                 d="m 18.936874,11.461151 c 0.405846,0.684756 0.529358,1.500488 0.344559,2.274689 C 15.904633,9.996128 11.750209,3.309573 4.113831,5.771707 2.404898,5.808262 0.958076,5.087106 0.275187,3.937706 -0.282791,3.001573 0.003743,1.824641 1.171499,-1.81e-4 11.157232,0.114152 15.648431,4.053596 18.936874,11.461151 Z" /></g><g
               id="g56"
               transform="translate(26.345215,17.866699)"><path
                 id="path54"
                 style="fill:#f3d2a2;fill-opacity:1;fill-rule:nonzero;stroke:none"
                 d="m 19.779844,19.958984 c -0.780578,0 -1.559602,-0.297422 -2.155691,-0.893512 C 13.419642,14.862362 8.673799,10.98094 1.238709,5.669495 -0.649735,4.275718 -0.321047,1.360138 1.830287,0.421671 2.79722,-4e-5 3.913487,0.107916 4.781642,0.707272 c 7.72629,5.5202 12.697688,9.589223 17.153888,14.045423 1.660711,1.65869 0.902847,4.493067 -1.363909,5.101912 -0.258223,0.06938 -0.524378,0.104377 -0.791777,0.104377 z" /></g><g
               id="g60"
               transform="translate(26.34668,17.866699)"><path
                 id="path58"
                 style="fill:#d2a077;fill-opacity:1;fill-rule:nonzero;stroke:none"
                 d="m 22.804605,16.656738 c -3.20911,-0.308 -6.326757,-1.126689 -9.293356,-2.475822 L 10.892007,12.990293 C 8.192184,10.768959 5.077496,8.410581 1.238696,5.669536 -0.649749,4.275602 -0.32106,1.360025 1.830428,0.421558 c 0.966934,-0.421711 2.0832,-0.313755 2.951356,0.285601 7.726289,5.520355 12.697687,9.589224 17.153887,14.045424 0.530599,0.531999 0.811067,1.210533 0.868934,1.904155 z" /></g><g
               id="g64"
               transform="translate(0.560059,10.57666)"><path
                 id="path62"
                 style="fill:#f3d2a2;fill-opacity:1;fill-rule:nonzero;stroke:none"
                 d="m 53.916176,18.507063 c 0,1.823267 -1.47871,3.300579 -3.301975,3.300579 -3.85249,0 -7.660798,-0.824757 -11.167176,-2.419512 l -4.379982,-1.990957 c -4.501932,-2.046177 -9.6572,-2.10202 -14.202377,-0.153997 -1.886732,0.804998 -2.647554,3.076419 -1.626644,4.855508 l 1.803512,3.155756 c 1.538134,2.692511 2.050377,5.850445 1.442154,8.891091 -0.331487,1.654953 -1.975555,2.699978 -3.614643,2.297397 C 18.364422,36.319572 17.9802,35.901752 17.836933,35.403194 L 16.565422,30.954773 8.179111,20.891264 C 6.199044,18.515152 3.514622,16.830019 0.5138,16.079929 L 0,15.951906 V 0.878883 L 1.640333,0.316395 c 0,0 10.063356,3.796024 12.019311,3.93478 l 14.571513,1.064154 c 2.558111,0.182933 15.528799,7.125532 15.528799,7.125532 1.756222,0.975801 10.423157,1.896534 10.423157,3.509491 0,0.922289 -0.266937,2.626867 -0.266937,2.556711 z" /></g><g
               id="g68"
               transform="translate(0.560059,8.894531)"><path
                 id="path66"
                 style="fill:#d2a077;fill-opacity:1;fill-rule:nonzero;stroke:none"
                 d="m 53.894867,20.393555 c 0.0047,-0.0686 0.01991,-0.134245 0.01991,-0.204401 1.56e-4,-1.614045 -1.167134,-2.991644 -2.7594,-3.256245 L 47.761776,16.36731 C 45.779842,16.036442 43.869621,15.368643 42.1134,14.392998 L 34.449642,10.134976 C 32.207775,8.889599 29.720446,8.14962 27.162489,7.967153 L 12.655066,6.930531 C 10.700199,6.790219 8.782512,6.324956 6.980867,5.553866 L 0,2.561131 V 6.5e-5 l 7.950444,3.407291 c 1.801334,0.772023 3.719333,1.237285 5.674199,1.376663 L 28.132065,5.820642 C 30.690022,6.00342 33.1772,6.743243 35.41922,7.988465 l 7.663757,4.258022 c 1.756222,0.975645 3.6666,1.643444 5.648377,1.974311 l 3.3936,0.5656 c 2.505844,0.42 3.617291,3.395157 2.000599,5.355156 -0.07249,0.08789 -0.149486,0.172045 -0.230686,0.252001 z" /></g></g></g></g></g><g
       id="g74"><g
         id="g76" /><g
         id="g118"><g
           style="opacity:0.55496"
           id="g116"
           clip-path="url(#clipPath80)"><g
             id="g114"><g
               id="g100" /><g
               id="g112"
               mask="url(#mask86)"><g
                 id="g102" /><g
                 id="g110"><g
                   id="g108"
                   clip-path="url(#clipPath98)"><g
                     id="g106"
                     transform="matrix(-0.999866,-0.016374,0.0109,-0.999941,38.050373,71.212547)"><path
                       id="path104"
                       d="m 10.215452,10.565417 c -1.568191,0 -2.839231,-2.317386 -2.839231,-5.17599 0,-2.8589 1.27104,-5.176731 2.839231,-5.176731 1.567948,0 2.838988,2.317831 2.838988,5.176731 0,2.858604 -1.27104,5.17599 -2.838988,5.17599 z M 2.839123,10.56512 C 1.271176,10.564872 0,8.248031 0,5.389179 0,2.530527 1.271176,0.212944 2.839123,0.212944 c 1.568056,0 2.839259,2.317583 2.839259,5.176235 0,2.858901 -1.271203,5.175941 -2.839395,5.175941 z m 6.52722,6.470544 c 0,-2.858602 -1.27104,-5.176682 -2.838987,-5.176682 -1.568192,0 -2.839232,2.31808 -2.839232,5.176682 0,2.858663 1.27104,5.17625 2.839232,5.17625 1.567947,0 2.838852,-2.317587 2.838852,-5.17625 z" /></g></g></g></g></g></g></g></g></g></svg>