<svg width="82" height="82" viewBox="0 0 82 82" fill="none" xmlns="http://www.w3.org/2000/svg">
<path fill-rule="evenodd" clip-rule="evenodd" d="M3.48507 26.7717C25.2279 23.842 29.1037 27.5158 41.0898 27.7385C53.0759 27.5158 56.9516 23.2561 78.6945 26.7717C80.0526 26.9943 80.1871 27.0471 80.4177 28.2775C80.5138 28.8225 80.5779 31.1252 80.5971 31.6701C80.6419 32.6779 80.4241 32.8127 79.3287 33.3459C78.3741 33.8088 77.9321 33.9436 77.9321 35.7834C77.9321 47.9123 71.9102 51.6623 63.8191 51.9494C55.2668 52.2541 48.3096 47.8068 45.414 40.9807C41.314 31.3361 40.6734 31.3303 36.5734 40.9807C33.6841 47.8068 26.9063 52.26 18.3604 51.9553C10.2693 51.6623 4.24742 47.4787 4.24742 35.7893C4.24742 33.9494 3.80538 33.8146 2.85085 33.3518C1.75538 32.8127 1.53117 32.6779 1.58242 31.6701C1.60804 31.1252 1.6721 28.8225 1.76179 28.2775C1.99242 27.0471 2.12695 27.5744 3.48507 26.7717Z" fill="#0039A6" stroke="#464747" stroke-width="0.9375" stroke-miterlimit="10"/>
<path fill-rule="evenodd" clip-rule="evenodd" d="M73.8194 35.1797C73.9283 30.6153 73.2236 29.5547 70.0589 28.9629C67.0928 28.4063 64.0563 28.1368 61.0581 28.2422C57.4514 28.3711 53.3514 29.6543 50.5775 30.7852C47.0413 32.2325 46.5352 32.5079 47.3039 34.5528C49.4756 40.3301 52.1855 48.17 63.1658 47.8008C71.2889 47.5196 73.6528 42.211 73.8194 35.1797ZM7.55315 35.1797C7.72612 42.211 10.0836 47.5254 18.2067 47.795C29.1935 48.17 31.8969 40.3243 34.0686 34.5469C34.8374 32.502 34.3313 32.2266 30.795 30.7793C28.0275 29.6485 23.9275 28.3653 20.3144 28.2364C17.3163 28.1309 14.2797 28.4004 11.3136 28.9571C8.14252 29.5547 7.43783 30.6153 7.55315 35.1797Z" fill="white"/>
<path fill-rule="evenodd" clip-rule="evenodd" d="M3.48507 26.7717C25.2279 23.842 29.1037 27.5158 41.0898 27.7385C53.0759 27.5158 56.9516 23.2561 78.6945 26.7717C80.0526 26.9943 80.1871 27.0471 80.4177 28.2775C80.5138 28.8225 80.5779 31.1252 80.5971 31.6701C80.6419 32.6779 80.4241 32.8127 79.3287 33.3459C78.3741 33.8088 77.9321 33.9436 77.9321 35.7834C77.9321 47.9123 71.9102 51.6623 63.8191 51.9494C55.2668 52.2541 48.3096 47.8068 45.414 40.9807C41.314 31.3361 40.6734 31.3303 36.5734 40.9807C33.6841 47.8068 26.9063 52.26 18.3604 51.9553C10.2693 51.6623 4.24742 47.4787 4.24742 35.7893C4.24742 33.9494 3.80538 33.8146 2.85085 33.3518C1.75538 32.8127 1.53117 32.6779 1.58242 31.6701C1.60804 31.1252 1.6721 28.8225 1.76179 28.2775C1.99242 27.0471 2.12695 27.5744 3.48507 26.7717ZM74.3638 35.5549C74.4727 30.9904 73.768 29.9299 70.6034 29.3381C67.6373 28.7814 64.6007 28.5119 61.6026 28.6174C57.9959 28.7463 53.8702 29.4611 51.1027 30.592C47.5665 32.0393 47.1757 33.1701 47.9444 35.2092C50.1162 40.9865 52.7235 48.5451 63.7102 48.1701C71.8334 47.8947 74.1973 42.5861 74.3638 35.5549ZM7.8157 35.5549C7.98867 42.5861 10.3462 47.9006 18.4693 48.1701C29.456 48.5393 32.1594 40.6994 34.3312 34.9221C35.0999 32.8771 34.5938 32.6018 31.0576 31.1545C28.2901 30.0236 24.1901 28.7404 20.5769 28.6115C17.5788 28.5061 14.5423 28.7756 11.5762 29.3322C8.41148 29.9299 7.70679 30.9904 7.8157 35.5549Z" fill="#0039A6"/>
<path d="M34.6897 40.7403C31.7428 45.627 24.2732 49.9805 19.2186 49.9805C14.1641 49.9805 7.15565 47.209 8.80206 39.8321C10.5382 32.0391 14.1641 28.2188 19.2186 28.2188C24.2732 28.2129 41.8455 28.8575 34.6897 40.7403ZM75.7922 40.7403C73.4091 45.8789 65.3821 49.9805 60.3211 49.9805C55.2602 49.9805 50.9616 45.7618 51.1025 39.252C51.2627 32.0332 56.0033 28.1368 61.0578 28.2422C71.0964 28.4473 81.4105 28.6114 75.7922 40.7403Z" fill="#0039A6"/>
</svg>
