<svg width="56" height="38" viewBox="0 0 56 38" fill="none" xmlns="http://www.w3.org/2000/svg">
<path d="M54.82 18.9163C54.82 17.093 53.3413 15.6157 51.518 15.6157C47.6655 15.6157 43.8572 16.4405 40.3508 18.0352L35.9709 20.0262C31.4689 22.0723 26.3137 22.1282 21.7685 20.1802C19.8817 19.3752 19.1209 17.1037 20.1418 15.3247L21.9453 12.1689C23.4835 9.47639 23.9957 6.31846 23.3875 3.27781C23.056 1.62286 21.4119 0.577833 19.7729 0.980411C19.2682 1.10377 18.884 1.52159 18.7407 2.02014L17.4692 6.46857L9.08292 16.5321C7.10285 18.9082 4.41843 20.5933 1.41761 21.3434L0.903809 21.4714V36.5445L2.54414 37.1069C2.54414 37.1069 12.6075 33.3109 14.5635 33.1722L29.135 32.108C31.6931 31.9251 44.6638 24.9825 44.6638 24.9825C46.42 24.0067 55.0869 23.0859 55.0869 21.473C55.0869 20.5507 54.82 18.8461 54.82 18.9163Z" fill="#F3D2A2"/>
</svg>
